<svg width="27" height="49" viewBox="0 0 27 49" fill="none" xmlns="http://www.w3.org/2000/svg">
<g clip-path="url(#clip0_8360_20741)">
<path d="M8.77148 24.3C8.77148 24.1477 8.82715 24.0159 8.93848 23.9045C9.0498 23.7932 9.18164 23.7375 9.33398 23.7375H21.709C21.8613 23.7375 21.9932 23.7932 22.1045 23.9045C22.2158 24.0159 22.2715 24.1477 22.2715 24.3C22.2715 24.4524 22.2158 24.5842 22.1045 24.6956C21.9932 24.8069 21.8613 24.8625 21.709 24.8625H9.33398C9.18164 24.8625 9.0498 24.8069 8.93848 24.6956C8.82715 24.5842 8.77148 24.4524 8.77148 24.3ZM16.2422 18.8333C16.3594 18.7278 16.4941 18.675 16.6465 18.675C16.7988 18.675 16.9336 18.7278 17.0508 18.8333L22.1133 23.8958C22.2188 24.0129 22.2715 24.1477 22.2715 24.3C22.2715 24.4524 22.2188 24.5872 22.1133 24.7043L17.0508 29.7668C16.9336 29.8723 16.7988 29.925 16.6465 29.925C16.4941 29.925 16.3594 29.8723 16.2422 29.7668C16.1367 29.6497 16.084 29.5149 16.084 29.3625C16.084 29.2102 16.1367 29.0754 16.2422 28.9583L20.918 24.3L16.2422 19.6418C16.1367 19.5247 16.084 19.3899 16.084 19.2375C16.084 19.0852 16.1367 18.9504 16.2422 18.8333Z" fill="white"/>
</g>
<defs>
<clipPath id="clip0_8360_20741">
<rect width="18" height="48" fill="white" transform="matrix(1 0 0 -1 8.77148 48.3)"/>
</clipPath>
</defs>
</svg>
