<svg width="27" height="49" viewBox="0 0 27 49" fill="none" xmlns="http://www.w3.org/2000/svg">
<g clip-path="url(#clip0_8360_20751)">
<path d="M8.52148 24.3C8.52148 24.1477 8.57715 24.0159 8.68848 23.9045C8.7998 23.7932 8.93164 23.7375 9.08398 23.7375H21.459C21.6113 23.7375 21.7432 23.7932 21.8545 23.9045C21.9658 24.0159 22.0215 24.1477 22.0215 24.3C22.0215 24.4524 21.9658 24.5842 21.8545 24.6956C21.7432 24.8069 21.6113 24.8625 21.459 24.8625H9.08398C8.93164 24.8625 8.7998 24.8069 8.68848 24.6956C8.57715 24.5842 8.52148 24.4524 8.52148 24.3ZM15.9922 18.8333C16.1094 18.7278 16.2441 18.675 16.3965 18.675C16.5488 18.675 16.6836 18.7278 16.8008 18.8333L21.8633 23.8958C21.9688 24.0129 22.0215 24.1477 22.0215 24.3C22.0215 24.4524 21.9688 24.5872 21.8633 24.7043L16.8008 29.7668C16.6836 29.8723 16.5488 29.925 16.3965 29.925C16.2441 29.925 16.1094 29.8723 15.9922 29.7668C15.8867 29.6497 15.834 29.5149 15.834 29.3625C15.834 29.2102 15.8867 29.0754 15.9922 28.9583L20.668 24.3L15.9922 19.6418C15.8867 19.5247 15.834 19.3899 15.834 19.2375C15.834 19.0852 15.8867 18.9504 15.9922 18.8333Z" fill="white"/>
</g>
<defs>
<clipPath id="clip0_8360_20751">
<rect width="18" height="48" fill="white" transform="matrix(1 0 0 -1 8.52148 48.3)"/>
</clipPath>
</defs>
</svg>
