<svg width="27" height="49" viewBox="0 0 27 49" fill="none" xmlns="http://www.w3.org/2000/svg">
<g clip-path="url(#clip0_8360_20816)">
<path d="M8.08984 24.3896C8.08984 24.2373 8.14551 24.1055 8.25684 23.9941C8.36816 23.8828 8.5 23.8271 8.65234 23.8271H21.0273C21.1797 23.8271 21.3115 23.8828 21.4229 23.9941C21.5342 24.1055 21.5898 24.2373 21.5898 24.3896C21.5898 24.542 21.5342 24.6738 21.4229 24.7852C21.3115 24.8965 21.1797 24.9521 21.0273 24.9521H8.65234C8.5 24.9521 8.36816 24.8965 8.25684 24.7852C8.14551 24.6738 8.08984 24.542 8.08984 24.3896ZM15.5605 18.9229C15.6777 18.8174 15.8125 18.7646 15.9648 18.7646C16.1172 18.7646 16.252 18.8174 16.3691 18.9229L21.4316 23.9854C21.5371 24.1025 21.5898 24.2373 21.5898 24.3896C21.5898 24.542 21.5371 24.6768 21.4316 24.7939L16.3691 29.8564C16.252 29.9619 16.1172 30.0146 15.9648 30.0146C15.8125 30.0146 15.6777 29.9619 15.5605 29.8564C15.4551 29.7393 15.4023 29.6045 15.4023 29.4521C15.4023 29.2998 15.4551 29.165 15.5605 29.0479L20.2363 24.3896L15.5605 19.7314C15.4551 19.6143 15.4023 19.4795 15.4023 19.3271C15.4023 19.1748 15.4551 19.04 15.5605 18.9229Z" fill="white"/>
</g>
<defs>
<clipPath id="clip0_8360_20816">
<rect width="18" height="48" fill="white" transform="matrix(1 0 0 -1 8.08984 48.3896)"/>
</clipPath>
</defs>
</svg>
