<svg width="68" height="69" viewBox="0 0 68 69" fill="none" xmlns="http://www.w3.org/2000/svg">
<g filter="url(#filter0_d_8360_20727)">
<rect x="10" y="10.8398" width="48" height="48" rx="24" fill="white" shape-rendering="crispEdges"/>
<g opacity="0.5" clip-path="url(#clip0_8360_20727)">
<path d="M34.358 44.0049C34.5237 44.0114 34.6066 44.0189 34.6066 44.0273C34.6066 44.0358 34.5237 44.0433 34.358 44.0498L26.1268 44.3398L34.358 44.6299C34.5237 44.6364 34.6066 44.6439 34.6066 44.6523C34.6066 44.6608 34.5237 44.6683 34.358 44.6748C34.1739 44.6807 33.9621 44.6836 33.7227 44.6836C33.4833 44.6836 33.2716 44.6807 33.0874 44.6748L24.2486 44.3623C24.0829 44.3558 24 44.3483 24 44.3398C24 44.3314 24.0829 44.3239 24.2486 44.3174L33.0874 44.0049C33.2716 43.999 33.4833 43.9961 33.7227 43.9961C33.9621 43.9961 34.1739 43.999 34.358 44.0049Z" fill="black"/>
</g>
</g>
<defs>
<filter id="filter0_d_8360_20727" x="0" y="0.839844" width="68" height="68" filterUnits="userSpaceOnUse" color-interpolation-filters="sRGB">
<feFlood flood-opacity="0" result="BackgroundImageFix"/>
<feColorMatrix in="SourceAlpha" type="matrix" values="0 0 0 0 0 0 0 0 0 0 0 0 0 0 0 0 0 0 127 0" result="hardAlpha"/>
<feOffset/>
<feGaussianBlur stdDeviation="5"/>
<feComposite in2="hardAlpha" operator="out"/>
<feColorMatrix type="matrix" values="0 0 0 0 0 0 0 0 0 0 0 0 0 0 0 0 0 0 0.1 0"/>
<feBlend mode="normal" in2="BackgroundImageFix" result="effect1_dropShadow_8360_20727"/>
<feBlend mode="normal" in="SourceGraphic" in2="effect1_dropShadow_8360_20727" result="shape"/>
</filter>
<clipPath id="clip0_8360_20727">
<rect width="28.2843" height="1" fill="white" transform="matrix(1 0 0 -1 24 44.8398)"/>
</clipPath>
</defs>
</svg>
