<svg width="68" height="69" viewBox="0 0 68 69" fill="none" xmlns="http://www.w3.org/2000/svg">
<g filter="url(#filter0_d_8360_20730)">
<rect x="10" y="10.8398" width="48" height="48" rx="24" fill="white" shape-rendering="crispEdges"/>
<g clip-path="url(#clip0_8360_20730)">
<path d="M24.2486 44.0049C24.4327 43.999 24.6445 43.9961 24.8839 43.9961C25.1233 43.9961 25.335 43.999 25.5192 44.0049L34.358 44.3174C34.5237 44.3239 34.6066 44.3314 34.6066 44.3398C34.6066 44.3483 34.5237 44.3558 34.358 44.3623L25.5192 44.6748C25.335 44.6807 25.1233 44.6836 24.8839 44.6836C24.6445 44.6836 24.4327 44.6807 24.2486 44.6748C24.0829 44.6683 24 44.6608 24 44.6523C24 44.6439 24.0829 44.6364 24.2486 44.6299L32.4798 44.3398L24.2486 44.0498C24.0829 44.0433 24 44.0358 24 44.0273C24 44.0189 24.0829 44.0114 24.2486 44.0049Z" fill="black"/>
</g>
</g>
<defs>
<filter id="filter0_d_8360_20730" x="0" y="0.839844" width="68" height="68" filterUnits="userSpaceOnUse" color-interpolation-filters="sRGB">
<feFlood flood-opacity="0" result="BackgroundImageFix"/>
<feColorMatrix in="SourceAlpha" type="matrix" values="0 0 0 0 0 0 0 0 0 0 0 0 0 0 0 0 0 0 127 0" result="hardAlpha"/>
<feOffset/>
<feGaussianBlur stdDeviation="5"/>
<feComposite in2="hardAlpha" operator="out"/>
<feColorMatrix type="matrix" values="0 0 0 0 0 0 0 0 0 0 0 0 0 0 0 0 0 0 0.1 0"/>
<feBlend mode="normal" in2="BackgroundImageFix" result="effect1_dropShadow_8360_20730"/>
<feBlend mode="normal" in="SourceGraphic" in2="effect1_dropShadow_8360_20730" result="shape"/>
</filter>
<clipPath id="clip0_8360_20730">
<rect width="28.2843" height="1" fill="white" transform="matrix(1 0 0 -1 24 44.8398)"/>
</clipPath>
</defs>
</svg>
