<svg width="19" height="19" viewBox="0 0 19 19" fill="none" xmlns="http://www.w3.org/2000/svg">
<g clip-path="url(#clip0_8360_20906)">
<path d="M0.300781 9.4502C0.300781 9.29785 0.356445 9.16602 0.467773 9.05469C0.579102 8.94336 0.710938 8.8877 0.863281 8.8877H13.2383C13.3906 8.8877 13.5225 8.94336 13.6338 9.05469C13.7451 9.16602 13.8008 9.29785 13.8008 9.4502C13.8008 9.60254 13.7451 9.73438 13.6338 9.8457C13.5225 9.95703 13.3906 10.0127 13.2383 10.0127H0.863281C0.710938 10.0127 0.579102 9.95703 0.467773 9.8457C0.356445 9.73438 0.300781 9.60254 0.300781 9.4502ZM7.77148 3.9834C7.88867 3.87793 8.02344 3.8252 8.17578 3.8252C8.32812 3.8252 8.46289 3.87793 8.58008 3.9834L13.6426 9.0459C13.748 9.16309 13.8008 9.29785 13.8008 9.4502C13.8008 9.60254 13.748 9.7373 13.6426 9.85449L8.58008 14.917C8.46289 15.0225 8.32812 15.0752 8.17578 15.0752C8.02344 15.0752 7.88867 15.0225 7.77148 14.917C7.66602 14.7998 7.61328 14.665 7.61328 14.5127C7.61328 14.3604 7.66602 14.2256 7.77148 14.1084L12.4473 9.4502L7.77148 4.79199C7.66602 4.6748 7.61328 4.54004 7.61328 4.3877C7.61328 4.23535 7.66602 4.10059 7.77148 3.9834Z" fill="black"/>
</g>
<defs>
<clipPath id="clip0_8360_20906">
<rect width="18" height="18" fill="white" transform="matrix(1 0 0 -1 0.300781 18.4502)"/>
</clipPath>
</defs>
</svg>
