<svg width="17" height="17" viewBox="0 0 17 17" fill="none" xmlns="http://www.w3.org/2000/svg">
<g clip-path="url(#clip0_8360_20768)">
<path d="M0.410156 8.5498C0.410156 8.41439 0.459635 8.2972 0.558594 8.19824C0.657552 8.09928 0.77474 8.0498 0.910156 8.0498H11.9102C12.0456 8.0498 12.1628 8.09928 12.2617 8.19824C12.3607 8.2972 12.4102 8.41439 12.4102 8.5498C12.4102 8.68522 12.3607 8.80241 12.2617 8.90137C12.1628 9.00033 12.0456 9.0498 11.9102 9.0498H0.910156C0.77474 9.0498 0.657552 9.00033 0.558594 8.90137C0.459635 8.80241 0.410156 8.68522 0.410156 8.5498ZM7.05078 3.69043C7.15495 3.59668 7.27474 3.5498 7.41016 3.5498C7.54557 3.5498 7.66536 3.59668 7.76953 3.69043L12.2695 8.19043C12.3633 8.2946 12.4102 8.41439 12.4102 8.5498C12.4102 8.68522 12.3633 8.80501 12.2695 8.90918L7.76953 13.4092C7.66536 13.5029 7.54557 13.5498 7.41016 13.5498C7.27474 13.5498 7.15495 13.5029 7.05078 13.4092C6.95703 13.305 6.91016 13.1852 6.91016 13.0498C6.91016 12.9144 6.95703 12.7946 7.05078 12.6904L11.207 8.5498L7.05078 4.40918C6.95703 4.30501 6.91016 4.18522 6.91016 4.0498C6.91016 3.91439 6.95703 3.7946 7.05078 3.69043Z" fill="white"/>
</g>
<defs>
<clipPath id="clip0_8360_20768">
<rect width="16" height="16" fill="white" transform="matrix(1 0 0 -1 0.410156 16.5498)"/>
</clipPath>
</defs>
</svg>
