<svg width="19" height="19" viewBox="0 0 19 19" fill="none" xmlns="http://www.w3.org/2000/svg">
<g clip-path="url(#clip0_8360_20901)">
<path d="M0.830078 9.4502C0.830078 9.29785 0.885742 9.16602 0.99707 9.05469C1.1084 8.94336 1.24023 8.8877 1.39258 8.8877H13.7676C13.9199 8.8877 14.0518 8.94336 14.1631 9.05469C14.2744 9.16602 14.3301 9.29785 14.3301 9.4502C14.3301 9.60254 14.2744 9.73438 14.1631 9.8457C14.0518 9.95703 13.9199 10.0127 13.7676 10.0127H1.39258C1.24023 10.0127 1.1084 9.95703 0.99707 9.8457C0.885742 9.73438 0.830078 9.60254 0.830078 9.4502ZM8.30078 3.9834C8.41797 3.87793 8.55273 3.8252 8.70508 3.8252C8.85742 3.8252 8.99219 3.87793 9.10938 3.9834L14.1719 9.0459C14.2773 9.16309 14.3301 9.29785 14.3301 9.4502C14.3301 9.60254 14.2773 9.7373 14.1719 9.85449L9.10938 14.917C8.99219 15.0225 8.85742 15.0752 8.70508 15.0752C8.55273 15.0752 8.41797 15.0225 8.30078 14.917C8.19531 14.7998 8.14258 14.665 8.14258 14.5127C8.14258 14.3604 8.19531 14.2256 8.30078 14.1084L12.9766 9.4502L8.30078 4.79199C8.19531 4.6748 8.14258 4.54004 8.14258 4.3877C8.14258 4.23535 8.19531 4.10059 8.30078 3.9834Z" fill="white"/>
</g>
<defs>
<clipPath id="clip0_8360_20901">
<rect width="18" height="18" fill="white" transform="matrix(1 0 0 -1 0.830078 18.4502)"/>
</clipPath>
</defs>
</svg>
